<svg xmlns="http://www.w3.org/2000/svg" xmlns:xlink="http://www.w3.org/1999/xlink" width="794" zoomAndPan="magnify" viewBox="0 0 594.95996 842.24997" height="1123" preserveAspectRatio="xMidYMid meet" version="1.0"><defs><clipPath id="7e8505cc28"><path d="M 428 170.464844 L 516.488281 170.464844 L 516.488281 241 L 428 241 Z M 428 170.464844 " clip-rule="nonzero"/></clipPath></defs><path fill="#fcf8e8" d="M 98.785156 184.53125 C 295.277344 194.878906 359.777344 184.910156 486.546875 184.53125 C 491.054688 346.417969 470.964844 651.144531 486.546875 649.882812 C 359.710938 649.28125 247.128906 645.109375 98.785156 649.882812 C 92.960938 515.152344 92.589844 361.332031 98.785156 184.53125 Z M 98.785156 184.53125 " fill-opacity="1" fill-rule="nonzero"/><path fill="#000000" d="M 486.542969 183.371094 C 359.714844 183.753906 295.285156 193.71875 98.84375 183.371094 C 98.6875 183.363281 98.539062 183.386719 98.390625 183.4375 C 98.246094 183.492188 98.117188 183.570312 98 183.675781 C 97.886719 183.78125 97.796875 183.902344 97.730469 184.042969 C 97.667969 184.183594 97.632812 184.332031 97.625 184.488281 C 91.429688 361.316406 91.804688 515.164062 97.625 649.933594 C 97.632812 650.085938 97.667969 650.234375 97.734375 650.371094 C 97.796875 650.507812 97.882812 650.628906 97.996094 650.734375 C 98.109375 650.839844 98.234375 650.917969 98.378906 650.96875 C 98.519531 651.023438 98.667969 651.046875 98.820312 651.042969 C 247.125 646.269531 359.683594 650.4375 486.539062 651.042969 L 486.539062 651.03125 C 486.574219 651.03125 486.605469 651.042969 486.640625 651.039062 C 486.789062 651.027344 486.929688 650.988281 487.0625 650.921875 C 487.195312 650.855469 487.3125 650.765625 487.410156 650.652344 C 487.511719 650.542969 487.585938 650.414062 487.636719 650.273438 C 487.6875 650.132812 487.707031 649.988281 487.703125 649.839844 C 487.695312 649.691406 487.664062 649.546875 487.601562 649.410156 C 487.542969 649.277344 487.457031 649.15625 487.351562 649.050781 C 487.242188 648.949219 487.121094 648.867188 486.984375 648.8125 C 486.84375 648.753906 486.699219 648.726562 486.550781 648.726562 C 486.511719 648.726562 486.472656 648.726562 486.433594 648.726562 C 486.410156 648.730469 486.355469 648.738281 486.105469 648.414062 C 485.824219 648.046875 485.460938 647.320312 485.128906 646.289062 C 484.464844 644.230469 483.878906 640.988281 483.410156 636.761719 C 482.464844 628.3125 481.953125 615.898438 481.765625 600.457031 C 481.386719 569.570312 482.296875 526.542969 483.550781 478.417969 C 486.0625 382.164062 489.960938 265.507812 487.703125 184.496094 C 487.699219 184.347656 487.667969 184.203125 487.605469 184.0625 C 487.546875 183.925781 487.460938 183.804688 487.351562 183.699219 C 487.242188 183.59375 487.121094 183.511719 486.980469 183.457031 C 486.839844 183.398438 486.691406 183.371094 486.542969 183.371094 Z M 485.414062 185.695312 C 487.601562 266.527344 483.738281 382.527344 481.238281 478.355469 C 479.980469 526.488281 479.070312 569.527344 479.449219 600.484375 C 479.636719 615.960938 480.148438 628.414062 481.105469 637.019531 C 481.585938 641.320312 482.167969 644.652344 482.925781 647 C 483.132812 647.644531 483.355469 648.199219 483.601562 648.703125 C 358.332031 648.050781 246.542969 644.011719 99.894531 648.691406 C 94.132812 514.566406 93.769531 361.53125 99.902344 185.742188 C 294.886719 195.957031 359.738281 186.136719 485.414062 185.695312 Z M 485.414062 185.695312 " fill-opacity="1" fill-rule="nonzero"/><path fill="#ecb390" d="M 93.1875 602.171875 L 166.074219 648.507812 L 152.898438 669.894531 L 80.011719 623.5625 Z M 93.1875 602.171875 " fill-opacity="1" fill-rule="nonzero"/><path fill="#000000" d="M 93.707031 601.328125 C 93.597656 601.257812 93.476562 601.214844 93.347656 601.191406 C 93.21875 601.167969 93.089844 601.171875 92.964844 601.203125 C 92.835938 601.230469 92.722656 601.285156 92.617188 601.359375 C 92.507812 601.4375 92.421875 601.53125 92.351562 601.640625 L 79.175781 623.03125 C 79.03125 623.261719 78.992188 623.515625 79.054688 623.78125 C 79.117188 624.050781 79.261719 624.257812 79.492188 624.402344 L 152.378906 670.738281 C 152.488281 670.808594 152.609375 670.855469 152.738281 670.875 C 152.867188 670.898438 152.992188 670.894531 153.121094 670.867188 C 153.246094 670.835938 153.363281 670.785156 153.46875 670.707031 C 153.574219 670.632812 153.664062 670.539062 153.730469 670.425781 L 166.910156 649.035156 C 167.050781 648.804688 167.09375 648.554688 167.03125 648.285156 C 166.96875 648.015625 166.824219 647.808594 166.59375 647.664062 Z M 93.503906 603.546875 L 164.71875 648.816406 L 152.582031 668.519531 L 81.367188 623.25 Z M 93.503906 603.546875 " fill-opacity="1" fill-rule="nonzero"/><path fill="#ecb390" d="M 442.464844 171.609375 L 515.351562 217.941406 L 502.175781 239.332031 L 429.289062 192.996094 Z M 442.464844 171.609375 " fill-opacity="1" fill-rule="nonzero"/><g clip-path="url(#7e8505cc28)"><path fill="#000000" d="M 442.984375 170.765625 C 442.875 170.695312 442.753906 170.648438 442.625 170.628906 C 442.496094 170.605469 442.367188 170.609375 442.242188 170.636719 C 442.113281 170.667969 442 170.71875 441.890625 170.796875 C 441.785156 170.871094 441.699219 170.964844 441.628906 171.078125 L 428.453125 192.464844 C 428.308594 192.699219 428.269531 192.949219 428.332031 193.21875 C 428.394531 193.488281 428.539062 193.695312 428.769531 193.839844 L 501.65625 240.175781 C 501.765625 240.246094 501.886719 240.289062 502.015625 240.3125 C 502.144531 240.335938 502.269531 240.332031 502.398438 240.300781 C 502.523438 240.273438 502.640625 240.21875 502.746094 240.144531 C 502.851562 240.066406 502.941406 239.972656 503.007812 239.863281 L 516.1875 218.472656 C 516.328125 218.242188 516.371094 217.988281 516.308594 217.722656 C 516.246094 217.453125 516.101562 217.246094 515.871094 217.097656 Z M 442.78125 172.984375 L 513.996094 218.253906 L 501.859375 237.957031 L 430.644531 192.6875 Z M 442.78125 172.984375 " fill-opacity="1" fill-rule="nonzero"/></g><path fill="#ecb390" d="M 447.53125 181.238281 L 437.390625 191.664062 " fill-opacity="1" fill-rule="nonzero"/><path fill="#000000" d="M 447.515625 180.078125 C 447.195312 180.082031 446.925781 180.199219 446.703125 180.429688 L 436.5625 190.855469 C 436.453125 190.964844 436.371094 191.089844 436.316406 191.234375 C 436.257812 191.375 436.230469 191.523438 436.234375 191.679688 C 436.234375 191.832031 436.265625 191.980469 436.328125 192.121094 C 436.390625 192.261719 436.472656 192.386719 436.585938 192.492188 C 436.695312 192.601562 436.820312 192.683594 436.964844 192.738281 C 437.105469 192.796875 437.253906 192.824219 437.40625 192.820312 C 437.5625 192.820312 437.707031 192.789062 437.851562 192.726562 C 437.992188 192.667969 438.117188 192.582031 438.222656 192.472656 L 448.363281 182.042969 C 448.46875 181.933594 448.550781 181.808594 448.609375 181.664062 C 448.664062 181.523438 448.691406 181.375 448.691406 181.222656 C 448.6875 181.066406 448.65625 180.921875 448.597656 180.777344 C 448.535156 180.636719 448.449219 180.511719 448.339844 180.40625 C 448.109375 180.183594 447.835938 180.074219 447.515625 180.078125 Z M 447.515625 180.078125 " fill-opacity="1" fill-rule="nonzero"/><path fill="#ecb390" d="M 452.882812 183.492188 L 445.277344 190.816406 " fill-opacity="1" fill-rule="nonzero"/><path fill="#000000" d="M 452.90625 182.332031 C 452.585938 182.328125 452.3125 182.433594 452.082031 182.65625 L 444.476562 189.984375 C 444.363281 190.089844 444.277344 190.214844 444.21875 190.355469 C 444.15625 190.496094 444.125 190.640625 444.121094 190.796875 C 444.117188 190.949219 444.144531 191.097656 444.199219 191.242188 C 444.257812 191.382812 444.339844 191.511719 444.445312 191.621094 C 444.550781 191.730469 444.675781 191.816406 444.816406 191.878906 C 444.957031 191.941406 445.105469 191.972656 445.257812 191.976562 C 445.410156 191.980469 445.558594 191.953125 445.703125 191.894531 C 445.84375 191.839844 445.972656 191.757812 446.082031 191.652344 L 453.6875 184.324219 C 453.796875 184.21875 453.882812 184.09375 453.945312 183.953125 C 454.007812 183.8125 454.039062 183.667969 454.042969 183.511719 C 454.046875 183.359375 454.019531 183.210938 453.960938 183.066406 C 453.90625 182.925781 453.824219 182.796875 453.71875 182.6875 C 453.496094 182.457031 453.226562 182.339844 452.90625 182.332031 Z M 452.90625 182.332031 " fill-opacity="1" fill-rule="nonzero"/><path fill="#ecb390" d="M 152.335938 654.351562 L 150.648438 663.085938 " fill-opacity="1" fill-rule="nonzero"/><path fill="#000000" d="M 152.558594 653.210938 C 152.40625 653.183594 152.253906 653.183594 152.105469 653.214844 C 151.953125 653.246094 151.816406 653.304688 151.6875 653.390625 C 151.5625 653.476562 151.457031 653.582031 151.371094 653.710938 C 151.285156 653.839844 151.230469 653.980469 151.199219 654.128906 L 149.507812 662.863281 C 149.480469 663.015625 149.480469 663.167969 149.511719 663.316406 C 149.542969 663.46875 149.601562 663.605469 149.6875 663.734375 C 149.773438 663.859375 149.878906 663.96875 150.007812 664.050781 C 150.136719 664.136719 150.277344 664.191406 150.425781 664.222656 C 150.578125 664.25 150.726562 664.25 150.878906 664.21875 C 151.027344 664.1875 151.167969 664.132812 151.296875 664.046875 C 151.421875 663.957031 151.527344 663.851562 151.613281 663.722656 C 151.699219 663.59375 151.753906 663.457031 151.785156 663.304688 L 153.472656 654.570312 C 153.503906 654.417969 153.503906 654.269531 153.472656 654.117188 C 153.441406 653.96875 153.382812 653.828125 153.296875 653.699219 C 153.210938 653.574219 153.101562 653.46875 152.976562 653.382812 C 152.847656 653.296875 152.707031 653.242188 152.558594 653.210938 Z M 152.558594 653.210938 " fill-opacity="1" fill-rule="nonzero"/><path fill="#ecb390" d="M 145.859375 646.460938 L 145.011719 657.449219 " fill-opacity="1" fill-rule="nonzero"/><path fill="#000000" d="M 145.945312 645.304688 C 145.792969 645.292969 145.644531 645.3125 145.5 645.359375 C 145.351562 645.40625 145.222656 645.480469 145.105469 645.582031 C 144.988281 645.679688 144.894531 645.796875 144.824219 645.9375 C 144.757812 646.074219 144.714844 646.21875 144.703125 646.371094 L 143.859375 657.359375 C 143.847656 657.511719 143.863281 657.664062 143.914062 657.808594 C 143.960938 657.957031 144.035156 658.085938 144.132812 658.203125 C 144.234375 658.320312 144.351562 658.414062 144.488281 658.484375 C 144.625 658.550781 144.769531 658.59375 144.925781 658.605469 C 145.078125 658.617188 145.226562 658.597656 145.371094 658.550781 C 145.519531 658.503906 145.648438 658.429688 145.765625 658.328125 C 145.882812 658.230469 145.976562 658.109375 146.046875 657.972656 C 146.117188 657.835938 146.15625 657.691406 146.167969 657.539062 L 147.011719 646.546875 C 147.023438 646.394531 147.007812 646.246094 146.957031 646.101562 C 146.910156 645.953125 146.835938 645.824219 146.738281 645.707031 C 146.636719 645.589844 146.519531 645.496094 146.382812 645.425781 C 146.246094 645.355469 146.101562 645.316406 145.945312 645.304688 Z M 145.945312 645.304688 " fill-opacity="1" fill-rule="nonzero"/><path fill="#ecb390" d="M 140.507812 636.597656 L 139.941406 646.742188 " fill-opacity="1" fill-rule="nonzero"/><path fill="#000000" d="M 140.570312 635.441406 C 140.417969 635.433594 140.269531 635.453125 140.121094 635.503906 C 139.976562 635.554688 139.847656 635.632812 139.734375 635.734375 C 139.621094 635.835938 139.527344 635.957031 139.460938 636.09375 C 139.394531 636.234375 139.359375 636.378906 139.351562 636.535156 L 138.785156 646.675781 C 138.777344 646.832031 138.800781 646.980469 138.851562 647.125 C 138.902344 647.269531 138.976562 647.398438 139.078125 647.515625 C 139.183594 647.628906 139.300781 647.71875 139.441406 647.785156 C 139.578125 647.851562 139.726562 647.890625 139.878906 647.898438 C 140.03125 647.90625 140.179688 647.886719 140.324219 647.835938 C 140.472656 647.785156 140.601562 647.707031 140.714844 647.605469 C 140.828125 647.503906 140.921875 647.382812 140.988281 647.242188 C 141.054688 647.105469 141.089844 646.960938 141.097656 646.804688 L 141.664062 636.660156 C 141.671875 636.507812 141.648438 636.359375 141.597656 636.214844 C 141.546875 636.070312 141.472656 635.941406 141.371094 635.824219 C 141.265625 635.710938 141.148438 635.621094 141.007812 635.554688 C 140.871094 635.488281 140.722656 635.449219 140.570312 635.441406 Z M 140.570312 635.441406 " fill-opacity="1" fill-rule="nonzero"/><path fill="#ecb390" d="M 467.871094 584.578125 L 450.96875 612.195312 " fill-opacity="1" fill-rule="nonzero"/><path fill="#000000" d="M 467.597656 583.453125 C 467.289062 583.527344 467.050781 583.703125 466.882812 583.972656 L 449.980469 611.589844 C 449.902344 611.71875 449.847656 611.863281 449.824219 612.011719 C 449.800781 612.164062 449.808594 612.316406 449.84375 612.464844 C 449.878906 612.613281 449.941406 612.75 450.03125 612.875 C 450.121094 613 450.234375 613.101562 450.363281 613.183594 C 450.496094 613.261719 450.636719 613.316406 450.789062 613.339844 C 450.941406 613.363281 451.089844 613.355469 451.238281 613.320312 C 451.390625 613.285156 451.527344 613.222656 451.652344 613.132812 C 451.773438 613.039062 451.878906 612.929688 451.957031 612.800781 L 468.859375 585.183594 C 468.9375 585.054688 468.988281 584.910156 469.015625 584.761719 C 469.039062 584.609375 469.03125 584.457031 468.996094 584.308594 C 468.960938 584.160156 468.898438 584.023438 468.804688 583.898438 C 468.714844 583.773438 468.605469 583.671875 468.472656 583.589844 C 468.203125 583.425781 467.910156 583.378906 467.597656 583.453125 Z M 467.597656 583.453125 " fill-opacity="1" fill-rule="nonzero"/><path fill="#ecb390" d="M 465.054688 606.558594 L 449.84375 634.171875 " fill-opacity="1" fill-rule="nonzero"/><path fill="#000000" d="M 464.730469 605.445312 C 464.421875 605.535156 464.191406 605.71875 464.039062 606 L 448.828125 633.613281 C 448.753906 633.75 448.707031 633.890625 448.691406 634.046875 C 448.675781 634.199219 448.6875 634.347656 448.730469 634.496094 C 448.773438 634.644531 448.84375 634.777344 448.9375 634.898438 C 449.035156 635.015625 449.148438 635.113281 449.285156 635.1875 C 449.417969 635.261719 449.5625 635.308594 449.714844 635.324219 C 449.867188 635.339844 450.015625 635.328125 450.164062 635.285156 C 450.3125 635.242188 450.445312 635.175781 450.566406 635.078125 C 450.6875 634.980469 450.78125 634.867188 450.855469 634.730469 L 466.066406 607.117188 C 466.140625 606.984375 466.1875 606.839844 466.203125 606.6875 C 466.222656 606.535156 466.207031 606.382812 466.164062 606.234375 C 466.121094 606.089844 466.054688 605.953125 465.957031 605.835938 C 465.863281 605.714844 465.746094 605.617188 465.613281 605.542969 C 465.332031 605.390625 465.039062 605.355469 464.730469 605.445312 Z M 464.730469 605.445312 " fill-opacity="1" fill-rule="nonzero"/><path fill="#ecb390" d="M 123.878906 210.464844 L 109.539062 231.980469 " fill-opacity="1" fill-rule="nonzero"/><path fill="#000000" d="M 123.652344 209.328125 C 123.335938 209.390625 123.09375 209.554688 122.914062 209.820312 L 108.574219 231.339844 C 108.488281 231.46875 108.429688 231.605469 108.402344 231.757812 C 108.371094 231.90625 108.371094 232.058594 108.402344 232.210938 C 108.433594 232.359375 108.488281 232.5 108.574219 232.625 C 108.660156 232.753906 108.765625 232.859375 108.894531 232.945312 C 109.023438 233.03125 109.164062 233.089844 109.3125 233.117188 C 109.464844 233.148438 109.613281 233.148438 109.765625 233.117188 C 109.914062 233.089844 110.054688 233.03125 110.183594 232.945312 C 110.308594 232.859375 110.417969 232.753906 110.5 232.625 L 124.84375 211.105469 C 124.925781 210.976562 124.984375 210.839844 125.015625 210.6875 C 125.042969 210.539062 125.042969 210.386719 125.015625 210.234375 C 124.984375 210.085938 124.925781 209.945312 124.839844 209.816406 C 124.753906 209.691406 124.648438 209.585938 124.519531 209.5 C 124.253906 209.320312 123.964844 209.265625 123.652344 209.328125 Z M 123.652344 209.328125 " fill-opacity="1" fill-rule="nonzero"/><path fill="#ecb390" d="M 118.390625 200.992188 L 108.25 215.363281 " fill-opacity="1" fill-rule="nonzero"/><path fill="#000000" d="M 118.195312 199.851562 C 117.878906 199.90625 117.628906 200.0625 117.445312 200.324219 L 107.304688 214.695312 C 107.214844 214.820312 107.15625 214.960938 107.121094 215.109375 C 107.085938 215.257812 107.082031 215.410156 107.109375 215.5625 C 107.136719 215.710938 107.1875 215.851562 107.269531 215.984375 C 107.351562 216.113281 107.457031 216.222656 107.582031 216.3125 C 107.707031 216.398438 107.84375 216.460938 107.996094 216.496094 C 108.144531 216.527344 108.296875 216.53125 108.445312 216.507812 C 108.597656 216.480469 108.738281 216.425781 108.867188 216.34375 C 109 216.261719 109.109375 216.15625 109.195312 216.03125 L 119.335938 201.660156 C 119.425781 201.535156 119.488281 201.398438 119.519531 201.25 C 119.554688 201.097656 119.558594 200.949219 119.53125 200.796875 C 119.507812 200.644531 119.453125 200.503906 119.371094 200.375 C 119.289062 200.246094 119.183594 200.136719 119.058594 200.046875 C 118.796875 199.863281 118.507812 199.796875 118.195312 199.851562 Z M 118.195312 199.851562 " fill-opacity="1" fill-rule="nonzero"/><path fill="#ecb390" d="M 117.265625 233.117188 L 107.96875 245.796875 " fill-opacity="1" fill-rule="nonzero"/><path fill="#000000" d="M 117.085938 231.972656 C 116.773438 232.019531 116.519531 232.171875 116.328125 232.429688 L 107.035156 245.113281 C 106.945312 245.234375 106.878906 245.371094 106.84375 245.519531 C 106.808594 245.671875 106.800781 245.820312 106.824219 245.972656 C 106.847656 246.125 106.898438 246.265625 106.980469 246.398438 C 107.058594 246.527344 107.160156 246.640625 107.285156 246.730469 C 107.40625 246.820312 107.542969 246.886719 107.695312 246.921875 C 107.84375 246.957031 107.992188 246.964844 108.144531 246.941406 C 108.296875 246.917969 108.4375 246.867188 108.570312 246.789062 C 108.699219 246.707031 108.8125 246.605469 108.902344 246.480469 L 118.199219 233.800781 C 118.289062 233.675781 118.351562 233.542969 118.390625 233.390625 C 118.425781 233.242188 118.433594 233.09375 118.410156 232.941406 C 118.386719 232.789062 118.332031 232.648438 118.253906 232.515625 C 118.175781 232.382812 118.074219 232.273438 117.949219 232.183594 C 117.691406 231.992188 117.402344 231.921875 117.085938 231.972656 Z M 117.085938 231.972656 " fill-opacity="1" fill-rule="nonzero"/></svg>