<svg width="120" height="90" viewBox="0 0 120 90" fill="none" xmlns="http://www.w3.org/2000/svg">
<path d="M6.25731 67.466L0.0809326 89.6322H4.94109L6.0559 85.5019H12.0807L13.1654 89.6322H18.4505L12.2746 67.466H6.25731ZM7.27658 81.0431L9.11138 74.149L10.9255 81.0431H7.27658Z" fill="#00979C"/>
<path d="M30.063 79.5194C29.9901 79.4335 29.9157 79.3523 29.84 79.2763C29.992 79.2131 30.1402 79.1459 30.2852 79.0724C30.8734 78.7754 31.3887 78.3776 31.8169 77.8928C32.2498 77.4033 32.5901 76.8135 32.8277 76.1394C33.063 75.4735 33.1825 74.7083 33.1825 73.8665C33.1825 72.706 32.9919 71.7023 32.6174 70.8823C32.2385 70.0529 31.6903 69.37 30.9887 68.8521C30.3077 68.3502 29.4795 67.9875 28.5266 67.7749C27.6108 67.5705 26.5793 67.466 25.4617 67.466H19.1569V89.6322H23.9921V80.9712H24.1356C24.6645 80.9712 25.1055 81.099 25.4833 81.3629C25.8584 81.6241 26.1459 82.0096 26.3638 82.5435L29.2861 89.6322H34.9119L31.3614 81.725C30.9313 80.7648 30.5063 80.0441 30.063 79.5194ZM27.96 75.2671C27.8203 75.5599 27.6264 75.8 27.3671 76.0007C27.0937 76.2118 26.7544 76.3738 26.3572 76.4824C25.9379 76.5978 25.4593 76.6557 24.9342 76.6557H23.9921V71.9895H25.0546C26.1615 71.9895 26.984 72.1804 27.4993 72.5576C27.9482 72.8861 28.1666 73.4397 28.1666 74.2509C28.1666 74.6431 28.0988 74.9758 27.96 75.2671Z" fill="#00979C"/>
<path d="M49.0783 70.0984C48.2642 69.1987 47.2374 68.5251 46.0265 68.0972C44.8463 67.6786 43.4572 67.466 41.8981 67.466H35.5034V89.6322H41.0699C42.8661 89.6322 44.4374 89.3631 45.7395 88.8328C47.0618 88.2953 48.1663 87.515 49.0213 86.5144C49.875 85.5159 50.5112 84.2959 50.9112 82.8891C51.3036 81.5119 51.5022 79.9628 51.5022 78.285C51.5022 76.456 51.3032 74.8516 50.9098 73.5163C50.5079 72.1483 49.8919 70.9987 49.0783 70.0984ZM45.1249 83.5695C44.2854 84.5949 43.0675 85.0932 41.4017 85.0932H40.3382V72.005H41.6572C42.5894 72.005 43.372 72.1499 43.9823 72.436C44.5743 72.7128 45.0322 73.1039 45.3823 73.6306C45.74 74.1707 45.9993 74.8485 46.1527 75.6437C46.3141 76.485 46.3964 77.4597 46.3964 78.5411C46.3964 80.8475 45.9687 82.5394 45.1249 83.5695Z" fill="#00979C"/>
<path d="M63.1496 81.5672C63.1496 82.3314 63.0856 82.9828 62.9581 83.5033C62.8395 83.9891 62.6649 84.3859 62.4381 84.6824C62.2207 84.9675 61.9548 85.1687 61.6259 85.2975C61.2677 85.4383 60.8099 85.5091 60.264 85.5091C59.6866 85.5091 59.2104 85.4279 58.8485 85.267C58.5007 85.1118 58.2212 84.8898 57.9934 84.5892C57.7647 84.2866 57.601 83.9068 57.5064 83.4588C57.401 82.9641 57.3478 82.3821 57.3478 81.7271V67.466H52.5131V81.9672C52.5131 83.1654 52.6481 84.2654 52.9135 85.236C53.1898 86.2443 53.6453 87.1161 54.2679 87.8255C54.8904 88.5343 55.7055 89.0827 56.6904 89.4537C57.6476 89.8163 58.8043 90 60.128 90C61.3115 90 62.3976 89.8163 63.3548 89.4537C64.3336 89.0848 65.1773 88.5255 65.863 87.7908C66.5491 87.0551 67.0813 86.129 67.4451 85.0383C67.8027 83.9674 67.9844 82.7132 67.9844 81.3106V67.466H63.1496V81.5672Z" fill="#00979C"/>
<path d="M70.4568 71.9253H74.7955V85.1413H70.4568V89.6322H84.0298V85.1413H79.691V71.9253H84.0298V67.466H70.4568V71.9253Z" fill="#00979C"/>
<path d="M97.4846 80.0963L92.0795 67.466H86.6071V89.6322H91.1101V76.7618L96.5439 89.6322H101.989V67.466H97.4846V80.0963Z" fill="#00979C"/>
<path d="M117.641 70.0885C116.229 68.1147 114.113 67.1141 111.352 67.1141C110.171 67.1141 109.044 67.3443 108.003 67.7981C106.948 68.258 106.015 68.9741 105.231 69.9281C104.453 70.8739 103.836 72.0902 103.397 73.5425C102.963 74.9762 102.742 76.6955 102.742 78.6532C102.742 82.2697 103.442 85.0832 104.822 87.0172C106.234 88.9967 108.35 89.9999 111.111 89.9999C112.292 89.9999 113.42 89.7697 114.461 89.3159C115.517 88.8555 116.449 88.1389 117.232 87.1864C118.009 86.2411 118.626 85.0253 119.067 83.572C119.5 82.1388 119.72 80.4196 119.72 78.4608C119.72 74.8339 119.021 72.0168 117.641 70.0885ZM114.459 81.6059C114.321 82.4239 114.105 83.1136 113.817 83.6563C113.544 84.1732 113.206 84.5519 112.785 84.8132C112.365 85.0734 111.842 85.2053 111.232 85.2053C110.023 85.2053 109.181 84.7107 108.657 83.6941C108.081 82.577 107.788 80.8169 107.788 78.4608C107.788 77.3546 107.861 76.3607 108.005 75.5086C108.143 74.6922 108.361 74.0035 108.652 73.4608C108.93 72.9419 109.269 72.5621 109.688 72.2998C110.102 72.0406 110.621 71.9092 111.232 71.9092C112.45 71.9092 113.294 72.4027 113.813 73.4178C114.385 74.5354 114.675 76.2971 114.675 78.6532C114.675 79.7625 114.602 80.7559 114.459 81.6059Z" fill="#00979C"/>
<path d="M112.736 2.96975H113.594V5.44956H114.202V2.96975H115.067V2.35406H112.736V2.96975Z" fill="#00979C"/>
<path d="M117.185 2.35406L116.598 4.46395L115.991 2.35406H115.197V5.44956H115.769V3.47213L116.337 5.44956H116.859L117.397 3.52335V5.44956H117.967V2.35406H117.185Z" fill="#00979C"/>
<path d="M89.1882 62.2549C81.5234 62.2549 74.9701 59.4135 69.2027 53.6017C65.6399 50.0126 62.7025 45.6154 60 41.0433C57.2979 45.6154 54.3601 50.0126 50.7978 53.6017C44.6007 59.846 37.4959 62.6616 29.081 62.2078C13.0337 62.1313 0 48.2075 0 31.1039C0 13.9533 13.1052 0 29.2137 0C38.0286 0 45.4501 3.20725 51.9004 9.80437C54.9987 12.9733 57.6141 16.6493 60 20.4955C62.3858 16.6493 65.0018 12.9733 68.0996 9.80437C74.5499 3.20725 81.9714 0 90.7863 0C106.895 0 120 13.9533 120 31.1039C120 48.2075 106.967 62.1313 90.919 62.2078C90.336 62.2394 89.7586 62.2549 89.1882 62.2549ZM65.8686 30.689C69.0657 36.3921 72.1687 41.7004 75.9485 45.5083C80.2147 49.8072 84.7116 51.5756 90.5247 51.2378L90.7863 51.23C101.389 51.23 110.015 42.2017 110.015 31.1039C110.015 20.0066 101.389 10.9778 90.7863 10.9778C84.5271 10.9778 79.4792 13.1591 74.9005 17.8419C71.4808 21.3399 68.6573 25.8215 65.8686 30.689ZM29.2137 10.9778C18.611 10.9778 9.98478 20.0066 9.98478 31.1039C9.98478 42.2017 18.611 51.23 29.2137 51.23L29.4758 51.2378C35.2893 51.5756 39.7853 49.8072 44.0515 45.5083C47.8312 41.7004 50.9347 36.3921 54.1314 30.689C51.3427 25.8215 48.5192 21.3399 45.1 17.8419C40.5208 13.1591 35.4729 10.9778 29.2137 10.9778Z" fill="#00979C"/>
<path d="M92.1068 27.1145V21.1615H86.4712V27.1145H81.0571V33.2806H86.4712V39.2776H92.1068V33.2806H97.5213V27.1145H92.1068Z" fill="#00979C"/>
<path d="M21.1065 27.0399H38.9025V33.3995H21.1065V27.0399Z" fill="#00979C"/>
</svg>
