<svg width="100" height="100" viewBox="0 0 100 100" fill="none" xmlns="http://www.w3.org/2000/svg">
<path d="M2.09057 55.0472C-0.696858 52.2597 -0.696858 47.7404 2.09057 44.9529L44.9529 2.09057C47.7404 -0.696858 52.2597 -0.696858 55.0472 2.09057L97.9094 44.9529C100.697 47.7404 100.697 52.2597 97.9094 55.0472L55.0472 97.9094C52.2597 100.697 47.7404 100.697 44.9529 97.9094L2.09057 55.0472Z" fill="#EE513B"/>
<path d="M32.1035 15L27 19.47L40.1813 31.0149C39.648 32.0169 39.3503 33.1343 39.3503 34.3127C39.3503 37.6582 41.7502 40.5127 45.1243 41.6275V69.8694C41.7502 70.9842 39.3503 73.8387 39.3503 77.1842C39.3503 81.5008 43.3455 85 48.2739 85C53.2022 85 57.1974 81.5008 57.1974 77.1842C57.1974 74.1514 55.225 71.5216 52.3422 70.2262V41.6662L64.9423 52.702C64.435 53.6837 64.1528 54.7735 64.1528 55.921C64.1528 60.2375 68.1481 63.7368 73.0764 63.7368C78.0047 63.7368 82 60.2375 82 55.921C82 51.6045 78.0047 48.1052 73.0764 48.1052C72.1185 48.1052 71.1964 48.2373 70.3313 48.4819L56.7989 36.6295C57.058 35.8976 57.1974 35.1193 57.1974 34.3127C57.1974 29.9962 53.2022 26.4969 48.2739 26.4969C47.3529 26.4969 46.4648 26.6191 45.6287 26.846L32.1035 15Z" fill="white"/>
</svg>
