<svg width="100" height="100" viewBox="0 0 100 100" fill="none" xmlns="http://www.w3.org/2000/svg">
<path fill-rule="evenodd" clip-rule="evenodd" d="M99.9436 22.6226C99.9807 22.7559 99.9996 22.8934 100 23.0315V44.4962C100 44.7717 99.9252 45.0423 99.783 45.2807C99.6408 45.5191 99.4364 45.7168 99.1904 45.8539L80.6441 56.2263V76.7853C80.6441 77.3448 80.3379 77.8612 79.8385 78.1429L41.1246 99.7916C41.036 99.8405 40.9393 99.8718 40.8426 99.905C40.8064 99.9168 40.7721 99.9383 40.7339 99.9481C40.4633 100.017 40.1788 100.017 39.9082 99.9481C39.8639 99.9363 39.8236 99.9129 39.7813 99.8972C39.6927 99.8659 39.6 99.8385 39.5154 99.7916L0.809602 78.1429C0.563716 78.0057 0.359408 77.808 0.217273 77.5696C0.0751368 77.3313 0.000194827 77.0607 0 76.7853L0 12.3911C0 12.2502 0.0201394 12.1133 0.0563902 11.9802C0.0684738 11.9352 0.096669 11.8942 0.11278 11.8492C0.14299 11.767 0.171185 11.6829 0.215491 11.6066C0.2457 11.5557 0.290007 11.5146 0.326258 11.4677C0.372578 11.4051 0.414871 11.3405 0.469247 11.2858C0.515568 11.2408 0.575986 11.2075 0.628348 11.1684C0.686752 11.1214 0.739115 11.0706 0.805575 11.0334L20.1615 0.209074C20.4066 0.0720938 20.6844 0 20.9671 0C21.2498 0 21.5276 0.0720938 21.7727 0.209074L41.1266 11.0334H41.1306C41.1951 11.0725 41.2494 11.1214 41.3078 11.1664C41.3602 11.2055 41.4186 11.2408 41.4649 11.2838C41.5213 11.3405 41.5616 11.4051 41.6099 11.4677C41.6442 11.5146 41.6905 11.5557 41.7187 11.6066C41.765 11.6848 41.7912 11.767 41.8234 11.8492C41.8395 11.8942 41.8677 11.9352 41.8798 11.9822C41.9169 12.1155 41.9358 12.253 41.9362 12.3911V52.611L58.0638 43.5904V23.0295C58.0638 22.8926 58.0839 22.7537 58.1202 22.6226C58.1343 22.5757 58.1605 22.5346 58.1766 22.4896C58.2088 22.4074 58.237 22.3233 58.2813 22.247C58.3115 22.1961 58.3558 22.1551 58.3901 22.1081C58.4384 22.0455 58.4787 21.9809 58.5351 21.9262C58.5814 21.8812 58.6398 21.8479 58.6922 21.8088C58.7526 21.7618 58.8049 21.711 58.8694 21.6738L78.2273 10.8495C78.4723 10.7123 78.7501 10.6401 79.0329 10.6401C79.3157 10.6401 79.5935 10.7123 79.8385 10.8495L99.1924 21.6738C99.2609 21.7129 99.3132 21.7618 99.3737 21.8068C99.424 21.846 99.4824 21.8812 99.5287 21.9242C99.5851 21.9809 99.6254 22.0455 99.6737 22.1081C99.71 22.1551 99.7543 22.1961 99.7825 22.247C99.8288 22.3233 99.855 22.4074 99.8872 22.4896C99.9053 22.5346 99.9315 22.5757 99.9436 22.6226ZM96.7737 43.5904V25.741L90.0008 29.5284L80.6441 34.7616V52.611L96.7757 43.5904H96.7737ZM77.4198 75.8795V58.0183L68.2161 63.1243L41.9342 77.6949V95.7244L77.4198 75.8795ZM3.22633 15.1006V75.8795L38.7079 95.7224V77.6969L20.1716 67.5064L20.1655 67.5025L20.1575 67.4986C20.0951 67.4634 20.0427 67.4125 19.9843 67.3695C19.9339 67.3304 19.8755 67.2991 19.8312 67.256L19.8272 67.2502C19.7748 67.2013 19.7386 67.1406 19.6943 67.0858C19.654 67.033 19.6057 66.988 19.5734 66.9332L19.5714 66.9274C19.5352 66.8687 19.513 66.7983 19.4868 66.7317C19.4607 66.673 19.4264 66.6183 19.4103 66.5557C19.3902 66.4813 19.3862 66.4011 19.3781 66.3248C19.37 66.2661 19.3539 66.2074 19.3539 66.1488V24.1212L9.9992 18.8861L3.22633 15.1006ZM20.9691 3.3744L4.84352 12.3911L20.9651 21.4077L37.0887 12.3891L20.9651 3.3744H20.9691ZM29.3551 59.646L38.7099 54.4148V15.1006L31.937 18.888L22.5803 24.1212V63.4353L29.3551 59.646ZM79.0329 14.0148L62.9093 23.0315L79.0329 32.0482L95.1545 23.0295L79.0329 14.0148ZM77.4198 34.7616L68.063 29.5284L61.2901 25.741V43.5904L70.6449 48.8216L77.4198 52.611V34.7616ZM40.319 74.9854L63.9687 61.8703L75.7905 55.3166L59.679 46.3058L41.1286 56.6802L24.2216 66.1351L40.319 74.9854Z" fill="#FF2D20"/>
</svg>
