<svg width="100" height="100" viewBox="0 0 100 100" fill="none" xmlns="http://www.w3.org/2000/svg">
<path d="M97.8057 0.00263084C96.2602 0.0769951 96.749 0.747571 93.4095 1.98512C90.0373 3.23481 85.9181 2.85161 82.2868 5.145C71.4465 11.991 69.2716 35.3898 59.4168 43.7717C52.0506 50.0374 44.6187 50.5371 37.9371 53.6901C33.546 55.7636 28.7426 60.0159 24.7642 65.1786C21.6762 69.1875 21.5955 72.7122 18.369 77.7402C14.9178 83.1182 4.65241 77.8311 0 86.0622C1.49871 88.3442 2.15576 88.9834 5.10925 88.3913C4.49777 90.1366 0.893217 91.6074 1.59881 94.1749C2.34125 96.8764 11.0556 98.7077 18.9772 91.5055C22.6664 88.1514 25.6049 83.3169 31.3506 82.1629C38.7858 80.6706 47.351 83.1201 55.9585 84.9892C54.6822 90.7198 52.1198 94.5308 50.0672 99.0948C49.4316 100.126 51.3439 100.241 53.5255 99.6182C57.45 98.1569 60.2782 96.9803 63.24 94.3842C66.8787 91.1944 67.43 83.0164 71.8945 81.2469C74.382 87.0043 81.1473 88.3643 85.3454 83.7592C81.6617 82.1891 80.6436 70.3816 81.8871 65.1786C83.0649 60.2537 84.2287 52.3755 85.4149 45.8653C86.6884 38.8736 87.1582 30.0611 88.6994 26.4996C91.0182 21.1413 93.5803 19.3012 95.8048 16.2797C98.0292 13.2582 100.065 10.317 99.9984 3.40317C99.9769 1.17626 99.2123 -0.0650591 97.8057 0.00263084Z" fill="#002B64"/>
<path d="M94.7732 4.11096C95.1446 6.0178 95.7258 6.89292 98.2383 7.24297C97.8712 12.0398 95.7464 14.6635 93.364 17.1808C91.2675 19.395 88.9707 21.5271 87.4948 24.9857C85.9828 28.5289 85.0229 40.655 82.6784 52.6303C80.6519 62.9776 77.5916 73.2086 72.2474 77.6914C71.6891 75.5752 72.3186 71.6694 71.208 70.3856C70.4895 73.4715 69.6771 76.416 68.7256 79.1527C65.5897 88.1786 60.9467 94.9367 53.1879 97.0001C56.8693 89.4984 60.3895 81.7513 60.4657 68.8213C57.8748 69.6654 57.9298 78.8814 55.2677 81.3451C53.561 81.6248 51.8321 81.6231 50.092 81.4657C42.946 80.8209 35.6154 77.5867 28.9304 80.8167C24.3787 83.0166 20.6561 88.2062 16.8017 90.7235C12.2716 93.6822 8.84098 94.899 3.19981 93.6822C2.48354 92.2293 7.32836 90.3542 7.03863 87.1996C4.83088 86.832 3.54905 87.6376 1.62991 86.3245C1.84179 85.7366 2.15321 85.2467 2.54527 84.8389C6.06266 81.1726 16.0537 83.973 18.7275 80.0194C20.378 77.5808 21.4608 75.0283 22.5819 72.547C23.6691 70.1394 24.793 67.7988 26.5052 65.6893C27.1375 64.9104 27.8249 64.1408 28.5545 63.3897C31.4724 60.3824 35.0821 57.6549 38.6345 55.7749C43.4738 53.2131 48.3775 53.0021 53.5355 50.0342C56.722 48.2003 60.1871 45.935 63.0116 42.7653C63.6822 42.0116 64.3167 41.2085 64.9034 40.3476C72.9687 28.508 74.5675 7.62317 87.1506 5.67697C88.6721 5.44165 89.9178 5.51785 91.0517 5.46593C92.3585 5.40731 93.5152 5.17869 94.7732 4.11096ZM79.4334 70.9542C79.5835 74.5736 80.9788 81.7546 82.2106 83.4998C79.7982 84.3833 75.6424 82.9236 74.5763 80.3611C75.1241 76.6613 77.9747 73.2789 79.4334 70.9542Z" fill="#C49A6C"/>
<path d="M95.386 8.09819C94.9122 9.59469 94.0052 11.5241 94.0052 15.3336C94.0013 15.9877 93.6754 16.4357 93.6699 15.4274C93.6943 11.7042 94.3489 10.0946 95.044 7.97928C95.3671 7.11253 95.5618 7.47012 95.386 8.09819ZM94.9089 7.5346C94.35 8.96243 93.0042 11.5669 92.7818 15.3621C92.7406 16.0128 92.3892 16.4156 92.4425 15.4098C92.685 11.705 93.7605 9.38617 94.5769 7.37046C94.9473 6.55061 95.1213 6.93248 94.9089 7.5346ZM94.474 6.78761C93.8373 8.13923 91.7658 11.267 91.3326 15.0213C91.2547 15.6636 90.8821 16.022 90.9917 15.0263C91.4399 11.3642 93.2256 8.48593 94.1515 6.58244C94.5663 5.81116 94.7181 6.21396 94.474 6.78761ZM94.0858 5.95436L93.8764 6.2899C92.9501 7.78528 90.7984 11.4326 90.0813 14.7709C89.9434 15.3906 89.5413 15.6669 89.7432 14.7039C90.5284 11.1733 92.6911 7.37046 93.7856 5.68219C94.2688 5.00638 94.3811 5.43766 94.0858 5.95436ZM82.9676 13.5131C83.4475 10.4087 85.0507 8.99425 87.8185 9.33927C88.4864 13.9728 84.7488 15.842 82.9676 13.5131Z" fill="#002B64"/>
</svg>
