<svg width="100" height="65" viewBox="0 0 100 65" fill="none" xmlns="http://www.w3.org/2000/svg">
<path d="M92.1042 50.2603C86.6607 50.1687 82.4461 50.5315 78.9088 51.5222C77.8875 51.7921 76.2635 51.7921 76.1215 52.6467C76.6732 53.0082 76.7369 53.5915 77.2157 54.0905C78.0313 54.9908 79.4532 56.2021 80.7512 56.8336C82.1767 57.5567 83.6077 58.2726 85.1078 58.903C87.7531 59.9865 90.7515 60.6168 93.3295 61.6967C94.8314 62.3246 96.3243 63.1369 97.8281 63.8131C98.5672 64.1734 99.0406 64.758 100 64.9833V64.8459C99.5194 64.441 99.3828 63.8552 98.9113 63.4045L96.8686 62.1004C94.8951 60.3456 92.4428 58.8138 89.7976 57.5555C87.6202 56.5624 82.8576 55.2126 81.9746 53.5518L81.8363 53.4602C83.3328 53.3674 85.1078 53.0082 86.5297 52.7322C88.8436 52.3285 90.9536 52.4201 93.3276 52.0163C94.42 51.8355 95.5032 51.6089 96.5992 51.386V50.9798C95.3685 50.1687 94.491 49.0912 93.1966 48.3247C89.7339 46.3445 85.918 44.4077 81.9746 42.7867C79.8628 41.884 77.1465 41.3031 74.8981 40.5353C74.088 40.2642 72.7225 40.1304 72.2455 39.6796C71.0258 38.6889 70.3394 37.3849 69.4546 36.2122C67.4884 33.7379 65.5787 30.9924 63.8819 28.3758C62.6548 26.621 61.9084 24.8686 60.4119 23.2452C53.4027 15.592 45.791 10.9567 34.0921 6.40701C31.5779 5.4597 28.5867 5.05595 25.3916 4.5594L20.2886 4.38102C19.1999 4.06526 18.1094 3.20834 17.159 2.80338C13.2776 1.18356 3.28454 -2.32726 0.429904 2.30804C-1.40886 5.23794 3.14982 8.11842 4.7155 9.60447C5.87155 10.6361 7.36987 11.81 8.1782 12.9815C8.65701 13.7468 8.79174 14.5591 9.27055 15.3678C10.3592 17.3492 11.3769 19.5536 12.8079 21.4024C13.5543 22.3449 14.3681 23.3356 15.3221 24.1889C15.8683 24.6878 16.8186 24.9084 17.0261 25.7219C16.0776 26.6186 16.003 27.9721 15.4586 29.0978C13.0118 34.185 13.9676 40.4871 17.4358 44.2257C18.5208 45.3514 21.1097 47.8294 24.5724 46.8797C27.6382 46.0697 26.9591 43.5038 27.8403 41.2537C28.0423 40.7101 27.9094 40.3534 28.3173 39.9966V40.0846C29.2658 41.3441 30.2234 42.5577 31.1027 43.8208C33.2127 46.0251 36.8866 48.3223 39.947 49.8493C41.5764 50.6641 42.8672 52.0573 44.908 52.555V52.4201H44.7733C44.36 52.0163 43.7556 51.8355 43.2131 51.5222C41.986 50.7111 40.6279 49.7204 39.6757 48.8213C36.8247 46.2987 34.3014 43.5062 32.0621 40.6245C30.9662 39.2265 30.0213 37.6982 29.1383 36.3026C28.7269 35.7639 28.7269 34.9515 28.0442 34.6804C27.021 35.6699 25.53 36.5268 24.7835 37.7392C23.4891 39.6784 23.3544 42.0636 22.8738 44.5439L22.6061 44.6307C20.4397 44.2703 19.686 42.7867 18.8631 41.5272C16.8259 38.3286 16.4836 33.1943 18.2514 29.5039C18.7247 28.5602 20.7728 25.5882 19.9554 24.6891C19.5458 23.8273 18.184 23.3368 17.4376 22.6582C16.5601 21.805 15.5988 20.7251 14.9871 19.7778C13.3559 17.2576 12.5348 14.4651 10.778 11.9462C9.95689 10.7723 8.5314 9.55746 7.37717 8.47638C6.08093 7.26151 4.65542 6.4058 3.63044 4.96556C3.29182 4.47021 2.81666 3.6603 3.36101 3.12156C3.49391 2.75999 3.77062 2.62501 4.31315 2.53462C5.1943 2.04168 7.71215 2.6684 8.59512 2.93957C11.1166 3.6145 13.2248 4.24483 15.3294 5.18973C16.2815 5.64169 17.3029 6.49739 18.5245 6.72277H19.9554C22.1273 7.03613 24.576 6.80955 26.6205 7.21692C30.2234 7.98344 33.4876 9.10791 36.4151 10.3216C45.3231 14.0614 52.6691 19.3752 57.6283 25.7219C58.4421 26.756 58.788 27.7033 59.5308 28.782C60.9635 30.99 62.7349 33.2413 64.1568 35.4023C65.5859 37.5175 66.9477 39.6772 68.9886 41.4344C70.0063 42.3793 74.0952 42.8747 75.9285 43.37C77.2849 43.7738 79.3967 44.1329 80.6201 44.6283C82.9341 45.572 85.2389 46.6555 87.4145 47.6932C88.4977 48.2331 91.9021 49.3588 92.1042 50.2603ZM22.7299 11.1339C21.791 11.1274 20.8549 11.2036 19.9463 11.3605V11.4509H20.0774C20.6254 12.1704 21.5775 12.6694 22.2566 13.2973C22.8046 14.0192 23.2798 14.7351 23.8168 15.4558L23.9479 15.3666C24.9073 14.9171 25.3843 14.1964 25.3843 13.1153C24.9711 12.7971 24.9073 12.4862 24.5632 12.1704C24.1627 11.7196 23.2798 11.4955 22.7299 11.1339Z" fill="#5D87A1"/>
</svg>
