<svg width="100" height="100" viewBox="0 0 100 100" fill="none" xmlns="http://www.w3.org/2000/svg">
<path d="M39.5292 65.625C39.5292 67.35 38.1313 68.75 36.4042 68.75C34.6771 68.75 33.2792 67.35 33.2792 65.625V36.4584C33.2792 35.098 34.1604 33.8938 35.4563 33.4792C36.7583 33.0667 38.1688 33.5417 38.9542 34.6521L73.9063 84.0355C84.6188 76.4771 91.6667 64.0313 91.6667 50C91.6667 27.0834 72.9167 8.33337 50 8.33337C27.0833 8.33337 8.33334 27.0834 8.33334 50C8.33334 72.9167 27.0833 91.6667 50 91.6667C56.65 91.6667 62.9292 90.048 68.5208 87.2459L39.5292 46.2834V65.625ZM60.3625 34.375C60.3625 32.65 61.7604 31.25 63.4875 31.25C65.2146 31.25 66.6125 32.65 66.6125 34.375V63.2084L60.3625 54.4021V34.375Z" fill="#212121"/>
</svg>
