<svg width="89" height="100" viewBox="0 0 89 100" fill="none" xmlns="http://www.w3.org/2000/svg">
<path d="M44.2907 99.8145C42.9152 99.8145 41.6314 99.4477 40.4393 98.8058L28.2433 91.5615C26.4093 90.5528 27.3263 90.1861 27.8765 90.0027C30.3524 89.1774 30.8109 88.994 33.3785 87.5268C33.6536 87.3434 34.0204 87.4351 34.2955 87.6185L43.6488 93.2121C44.0156 93.3955 44.4741 93.3955 44.7492 93.2121L81.3371 72.0296C81.7039 71.8462 81.8873 71.4794 81.8873 71.0209V28.7477C81.8873 28.2892 81.7039 27.9224 81.3371 27.739L44.7492 6.64818C44.3824 6.46479 43.9239 6.46479 43.6488 6.64818L7.06083 27.739C6.69403 27.9224 6.51063 28.3809 6.51063 28.7477V71.0209C6.51063 71.3877 6.69403 71.8462 7.06083 72.0296L17.056 77.8067C22.4663 80.5576 25.8591 77.3482 25.8591 74.1387V32.4156C25.8591 31.8654 26.3176 31.3152 26.9595 31.3152H31.6362C32.1864 31.3152 32.7366 31.7737 32.7366 32.4156V74.1387C32.7366 81.3829 28.7935 85.6011 21.9161 85.6011C19.807 85.6011 18.1564 85.6011 13.4798 83.3086L3.85136 77.8067C1.46719 76.4312 0 73.8636 0 71.1126V28.8394C0 26.0884 1.46719 23.5208 3.85136 22.1453L40.4393 0.96284C42.7318 -0.320947 45.8495 -0.320947 48.142 0.96284L84.7299 22.1453C87.1141 23.5208 88.5813 26.0884 88.5813 28.8394V71.1126C88.5813 73.8636 87.1141 76.4312 84.7299 77.8067L48.142 98.9892C46.9499 99.5394 45.5744 99.8145 44.2907 99.8145ZM55.5696 70.7458C39.5223 70.7458 36.2211 63.4099 36.2211 57.1744C36.2211 56.6242 36.6796 56.074 37.3215 56.074H42.0899C42.6401 56.074 43.0986 56.4408 43.0986 56.991C43.8322 61.851 45.9412 64.2352 55.6613 64.2352C63.3641 64.2352 66.6652 62.4929 66.6652 58.3665C66.6652 55.9823 65.7482 54.24 53.7357 53.0479C43.7405 52.0392 37.5049 49.8385 37.5049 41.8606C37.5049 34.433 43.7405 30.0315 54.1942 30.0315C65.9316 30.0315 71.7087 34.0662 72.4423 42.8693C72.4423 43.1444 72.3506 43.4195 72.1672 43.6946C71.9838 43.878 71.7087 44.0614 71.4336 44.0614H66.6652C66.2067 44.0614 65.7482 43.6946 65.6565 43.2361C64.5562 38.1927 61.7135 36.5421 54.1942 36.5421C45.7578 36.5421 44.7492 39.4765 44.7492 41.6772C44.7492 44.3365 45.9412 45.1618 57.3119 46.629C68.5909 48.0962 73.9095 50.2052 73.9095 58.0914C73.8178 66.1609 67.2154 70.7458 55.5696 70.7458Z" fill="#539E43"/>
</svg>
