<svg width="100" height="100" viewBox="0 0 100 100" fill="none" xmlns="http://www.w3.org/2000/svg">
<path d="M98.1091 59.8809C97.5277 58.1202 96.0046 56.8936 94.0348 56.5991C93.1061 56.4605 92.0423 56.5197 90.7837 56.7792C88.5899 57.2318 86.9623 57.404 85.7744 57.4376C90.2579 49.8675 93.9038 41.2347 96.0026 33.1085C99.3963 19.969 97.5828 13.9831 95.4636 11.2753C89.855 4.10899 81.6722 0.258863 71.7998 0.140842C66.5339 0.0765689 61.9105 1.11636 59.499 1.8639C57.2535 1.46796 54.8389 1.2467 52.3053 1.20572C47.557 1.13002 43.3611 2.16511 39.7759 4.29262C37.7906 3.62167 34.6054 2.67549 30.9265 2.0715C22.2741 0.650997 15.3008 1.75797 10.2001 5.36131C4.02362 9.72427 1.16021 17.3045 1.68985 27.8916C1.85781 31.2531 3.73831 41.4802 6.69891 51.1796C8.40047 56.7543 10.2149 61.384 12.0918 64.9408C14.7534 69.9843 17.6014 72.9546 20.7987 74.021C22.591 74.6183 25.847 75.0362 29.2718 72.1844C29.7058 72.7098 30.2847 73.2323 31.0535 73.7173C32.0295 74.333 33.2231 74.8359 34.415 75.134C38.711 76.2081 42.7349 75.9393 46.1678 74.4342C46.1889 75.0447 46.2052 75.6281 46.2191 76.1317C46.2419 76.9489 46.2643 77.75 46.2943 78.4991C46.4977 83.5652 46.8423 87.5043 47.8636 90.2602C47.9195 90.412 47.995 90.6429 48.0747 90.8877C48.584 92.4477 49.4361 95.0589 51.6033 97.1043C53.8479 99.2226 56.5626 99.8725 59.0489 99.8723C60.2958 99.8723 61.4857 99.7088 62.529 99.4851C66.249 98.688 70.4736 97.4733 73.5296 93.122C76.4188 89.0083 77.8234 82.8125 78.0776 73.0497C78.1105 72.7738 78.1409 72.5102 78.1703 72.259C78.19 72.0894 78.2101 71.9161 78.2305 71.7432L78.9113 71.803L79.0867 71.8149C82.8754 71.9875 87.508 71.184 90.3531 69.8625C92.6013 68.8191 99.8053 65.016 98.1091 59.8809Z" fill="black"/>
<path d="M91.6309 60.8797C80.3658 63.2034 79.5914 59.3893 79.5914 59.3893C91.4855 41.7404 96.4577 19.3377 92.1668 13.8548C80.461 -1.10162 60.1977 5.9718 59.8595 6.15543L59.7507 6.17492C57.5251 5.71291 55.0344 5.43768 52.235 5.39199C47.1377 5.30846 43.2712 6.72829 40.3373 8.95322C40.3373 8.95322 4.18954 -5.93823 5.87072 27.682C6.22836 34.8345 16.1222 81.8008 27.9231 67.6147C32.2364 62.4274 36.4039 58.0414 36.4039 58.0414C38.4738 59.4164 40.9518 60.1178 43.5496 59.8659L43.7514 59.6946C43.6887 60.3386 43.7173 60.9686 43.8322 61.7144C40.7921 65.111 41.6855 65.7074 35.6082 66.9583C29.4588 68.2257 33.0713 70.4819 35.4299 71.0716C38.2893 71.7867 44.9045 72.7996 49.3743 66.5425L49.196 67.2564C50.3872 68.2104 51.2236 73.4623 51.0835 78.223C50.9433 82.9839 50.8497 86.2524 51.7882 88.8054C52.7268 91.3584 53.6622 97.1027 61.6514 95.3908C68.327 93.9603 71.7864 90.253 72.2676 84.0691C72.6092 79.6728 73.382 80.3227 73.4308 76.3922L74.0507 74.5314C74.7656 68.5719 74.1643 66.6493 78.2771 67.5435L79.2766 67.6313C82.3037 67.769 86.2655 67.1444 88.5908 66.0637C93.5978 63.74 96.5674 59.8603 91.6304 60.8797H91.6309Z" fill="#336791"/>
<path d="M42.4532 30.8807C41.4383 30.7394 40.5187 30.8701 40.0536 31.2222C39.7918 31.4204 39.7109 31.6499 39.6892 31.808C39.6308 32.2266 39.9241 32.6893 40.1042 32.928C40.6139 33.6037 41.3588 34.0681 42.096 34.1705C42.2028 34.1853 42.309 34.1924 42.4147 34.1924C43.6441 34.1924 44.7616 33.2353 44.8602 32.5287C44.9834 31.6439 43.6988 31.054 42.4532 30.8807Z" fill="white"/>
<path d="M76.0835 30.9087C75.9868 30.2151 74.7522 30.0174 73.5809 30.1802C72.4114 30.3432 71.2771 30.8711 71.3719 31.5662C71.448 32.1068 72.4238 33.0297 73.5793 33.0295C73.6768 33.0295 73.7753 33.023 73.8745 33.0091C74.6458 32.9023 75.2117 32.4125 75.4804 32.1301C75.89 31.7001 76.1268 31.2204 76.0835 30.9087Z" fill="white"/>
<path d="M95.3796 60.6157C94.9501 59.3168 93.5677 58.8987 91.2706 59.3732C84.4505 60.7807 82.0081 59.8057 81.2059 59.2151C86.5072 51.1391 90.8682 41.3774 93.2208 32.2692C94.3354 27.9548 94.951 23.9481 95.0011 20.6825C95.0567 17.0976 94.4464 14.4637 93.1872 12.8546C88.1105 6.36774 80.6599 2.88825 71.6409 2.79263C65.4406 2.72298 60.202 4.30988 59.1864 4.75598C57.0477 4.22411 54.7162 3.89759 52.1782 3.85594C47.5234 3.78069 43.5002 4.89506 40.1689 7.16634C38.722 6.62797 34.9825 5.3443 30.4097 4.60773C22.5034 3.33458 16.221 4.29913 11.7375 7.47539C6.38787 11.2655 3.91816 18.0404 4.39674 27.6115C4.55776 30.8319 6.39235 40.7378 9.288 50.2247C13.0994 62.7109 17.2422 69.7796 21.6016 71.2335C22.1117 71.4037 22.7003 71.5229 23.3488 71.5229C24.9391 71.5229 26.8886 70.806 28.9171 68.3674C32.2864 64.314 35.4322 60.9173 36.5918 59.6832C38.3055 60.6031 40.1877 61.1167 42.1135 61.1682C42.1168 61.2186 42.122 61.2689 42.1265 61.3191C41.7402 61.7773 41.4233 62.1788 41.1532 62.5217C39.8191 64.2152 39.5414 64.5677 35.247 65.4521C34.0256 65.704 30.7808 66.3727 30.7335 68.6469C30.6818 71.1316 34.5684 72.1752 35.0114 72.2859C36.5546 72.6722 38.0412 72.8628 39.459 72.8628C42.9074 72.8625 45.9416 71.7293 48.3668 69.5367C48.292 78.395 48.6615 87.1238 49.725 89.7834C50.596 91.9604 52.7242 97.2814 59.4464 97.281C60.4325 97.281 61.5184 97.1663 62.7127 96.9103C69.7281 95.4061 72.7745 92.3055 73.9531 85.4697C74.5838 81.8164 75.6661 73.0923 76.1749 68.4129C77.2492 68.7479 78.6323 68.9013 80.1274 68.9011C83.2456 68.9011 86.8436 68.2387 89.1001 67.1913C91.6348 66.0142 96.2091 63.1252 95.3796 60.6157ZM78.6728 28.9942C78.6495 30.3757 78.4594 31.6298 78.2579 32.939C78.0411 34.347 77.8167 35.8026 77.7602 37.5698C77.7045 39.2895 77.9193 41.0775 78.1271 42.8064C78.5468 46.2987 78.9774 49.8941 77.3101 53.4419C77.051 52.9817 76.8008 52.4796 76.5715 51.9236C76.3644 51.4212 75.9145 50.6144 75.2917 49.4975C72.8676 45.1507 67.1914 34.9713 70.0972 30.8175C70.9625 29.5809 73.159 28.31 78.6728 28.9942ZM71.9895 5.59019C80.0705 5.76868 86.4627 8.79176 90.9887 14.575C94.4599 19.011 90.6375 39.1955 79.572 56.6086C79.4627 56.4697 79.3514 56.3295 79.2363 56.1858C79.1904 56.1282 79.1436 56.0698 79.0963 56.0106C81.9557 51.2882 81.3965 46.616 80.8989 42.4734C80.6944 40.7734 80.5014 39.1677 80.5504 37.6596C80.6013 36.0606 80.8127 34.6898 81.0169 33.3641C81.2684 31.7301 81.5239 30.0398 81.4534 28.0469C81.506 27.8379 81.5273 27.5909 81.4997 27.2977C81.3197 25.3866 79.138 19.6676 74.6908 14.4906C72.2585 11.6594 68.7109 8.49077 63.8674 6.35363C65.9508 5.92186 68.7999 5.5192 71.9895 5.59019ZM26.7705 66.5826C24.5358 69.2695 22.9923 68.7546 22.4848 68.5856C19.1778 67.4824 15.3409 60.4932 11.9579 49.4097C9.03068 39.8196 7.31994 30.1762 7.18467 27.472C6.75716 18.9198 8.83025 12.9594 13.3466 9.75653C20.6966 4.54413 32.7809 7.66396 37.6365 9.24638C37.5666 9.31513 37.4941 9.37962 37.4249 9.4495C29.457 17.4966 29.646 31.2453 29.6655 32.0855C29.6648 32.4098 29.6919 32.8689 29.7293 33.5004C29.8664 35.8127 30.1215 40.1166 29.44 44.9906C28.8065 49.5197 30.2025 53.9528 33.2697 57.153C33.5873 57.4842 33.9187 57.7953 34.2612 58.088C32.8958 59.5501 29.9287 62.7833 26.7705 66.5826ZM35.2853 55.2214C32.8131 52.6422 31.6905 49.0543 32.2046 45.3771C32.9244 40.2283 32.6586 35.7442 32.5159 33.3352C32.496 32.9981 32.4783 32.7027 32.4678 32.4696C33.6319 31.4377 39.0261 28.5472 42.8729 29.4286C44.6286 29.8308 45.698 31.026 46.1428 33.0823C48.4445 43.7273 46.4475 48.1641 44.843 51.7294C44.5122 52.464 44.1998 53.1582 43.9328 53.8766L43.7261 54.4318C43.2025 55.8357 42.7154 57.1409 42.4136 58.3805C39.7858 58.3724 37.2292 57.25 35.2853 55.2214ZM35.6886 69.5777C34.9214 69.3859 34.2312 69.0529 33.8263 68.7768C34.1644 68.6176 34.7664 68.4012 35.8102 68.1863C40.8623 67.146 41.6423 66.4121 43.3461 64.2488C43.7369 63.753 44.1796 63.1906 44.7928 62.5058L44.7935 62.5049C45.7069 61.4824 46.1246 61.6557 46.8822 61.9699C47.4963 62.2241 48.0942 62.9936 48.3368 63.8405C48.4514 64.2405 48.5804 64.9999 48.1587 65.5905C44.5995 70.5738 39.4133 70.5097 35.6886 69.5777ZM62.1275 94.1809C55.9472 95.5051 53.759 92.3516 52.317 88.7467C51.3863 86.4193 50.929 75.9244 51.2535 64.3348C51.2577 64.1805 51.2358 64.0316 51.1932 63.8916C51.1563 63.6213 51.0994 63.3478 51.0206 63.0726C50.5377 61.3863 49.3618 59.9756 47.9509 59.3909C47.3904 59.1587 46.3613 58.7325 45.1249 59.0487C45.3887 57.9623 45.846 56.7358 46.3416 55.4073L46.5497 54.8483C46.7839 54.2184 47.0775 53.5658 47.3884 52.8751C49.0675 49.1446 51.3672 44.0352 48.8713 32.4922C47.9364 28.1689 44.8145 26.0577 40.0818 26.548C37.2444 26.8416 34.6488 27.9864 33.3542 28.6428C33.0758 28.7839 32.8212 28.92 32.5833 29.0528C32.9446 24.6966 34.31 16.5558 39.4169 11.4052C42.6321 8.16247 46.9145 6.56101 52.132 6.64723C62.4124 6.81564 69.0048 12.0914 72.7252 16.4878C75.931 20.2763 77.6671 24.0924 78.36 26.1505C73.1498 25.6208 69.6063 26.6494 67.8098 29.2174C63.9019 34.8036 69.9478 45.6463 72.8535 50.8571C73.3863 51.8123 73.8463 52.6375 73.991 52.9882C74.9372 55.2815 76.1622 56.8124 77.0566 57.9301C77.3307 58.2725 77.5968 58.6046 77.799 58.8946C76.2211 59.3497 73.3865 60.4007 73.6448 65.6547C73.4365 68.2913 71.9548 80.6344 71.2024 84.9954C70.2089 90.7567 68.0888 92.9028 62.1275 94.1809ZM87.9246 64.6593C86.3111 65.4084 83.6107 65.9703 81.0453 66.0908C78.212 66.2236 76.7697 65.7734 76.4304 65.4966C76.271 62.2225 77.4899 61.8803 78.7797 61.5182C78.9823 61.4611 79.1801 61.4058 79.3709 61.339C79.4896 61.4356 79.6195 61.5314 79.7617 61.6252C82.039 63.1284 86.101 63.2905 91.8352 62.107C91.8562 62.1025 91.8773 62.0984 91.8981 62.0942C91.1248 62.8173 89.8013 63.7879 87.9246 64.6593Z" fill="white"/>
</svg>
