<svg width="100" height="60" viewBox="0 0 100 60" fill="none" xmlns="http://www.w3.org/2000/svg">
<path d="M50 0C36.6667 0 28.3333 6.66667 25 20C30 13.3333 35.8333 10.8333 42.5 12.5C46.3037 13.4509 49.0224 16.2104 52.0317 19.265C56.9339 24.2409 62.6076 30 75 30C88.3333 30 96.6667 23.3333 100 10C95 16.6667 89.1667 19.1667 82.5 17.5C78.6963 16.5491 75.9776 13.7896 72.9683 10.735C68.0661 5.75907 62.3924 0 50 0ZM25 30C11.6667 30 3.33333 36.6667 0 50C5 43.3333 10.8333 40.8333 17.5 42.5C21.3037 43.4509 24.0224 46.2104 27.0317 49.265C31.9339 54.2409 37.6076 60 50 60C63.3333 60 71.6667 53.3333 75 40C70 46.6667 64.1667 49.1667 57.5 47.5C53.6963 46.5491 50.9776 43.7896 47.9683 40.735C43.0661 35.7591 37.3924 30 25 30Z" fill="url(#paint0_linear_14_24)"/>
<defs>
<linearGradient id="paint0_linear_14_24" x1="-2.77778" y1="19.2" x2="83.5886" y2="68.9968" gradientUnits="userSpaceOnUse">
<stop stop-color="#2298BD"/>
<stop offset="1" stop-color="#0ED7B5"/>
</linearGradient>
</defs>
</svg>
